<svg width="229" height="56" viewBox="0 0 229 56" fill="none" xmlns="http://www.w3.org/2000/svg">
<path d="M16.4766 30.1953H8.46094V44H3.9375V9.875H15.2344C19.0781 9.875 22.0312 10.75 24.0938 12.5C26.1719 14.25 27.2109 16.7969 27.2109 20.1406C27.2109 22.2656 26.6328 24.1172 25.4766 25.6953C24.3359 27.2734 22.7422 28.4531 20.6953 29.2344L28.7109 43.7188V44H23.8828L16.4766 30.1953ZM8.46094 26.5156H15.375C17.6094 26.5156 19.3828 25.9375 20.6953 24.7812C22.0234 23.625 22.6875 22.0781 22.6875 20.1406C22.6875 18.0312 22.0547 16.4141 20.7891 15.2891C19.5391 14.1641 17.7266 13.5938 15.3516 13.5781H8.46094V26.5156ZM43.3828 44.4688C39.9453 44.4688 37.1484 43.3438 34.9922 41.0938C32.8359 38.8281 31.7578 35.8047 31.7578 32.0234V31.2266C31.7578 28.7109 32.2344 26.4688 33.1875 24.5C34.1562 22.5156 35.5 20.9688 37.2188 19.8594C38.9531 18.7344 40.8281 18.1719 42.8438 18.1719C46.1406 18.1719 48.7031 19.2578 50.5312 21.4297C52.3594 23.6016 53.2734 26.7109 53.2734 30.7578V32.5625H36.0938C36.1562 35.0625 36.8828 37.0859 38.2734 38.6328C39.6797 40.1641 41.4609 40.9297 43.6172 40.9297C45.1484 40.9297 46.4453 40.6172 47.5078 39.9922C48.5703 39.3672 49.5 38.5391 50.2969 37.5078L52.9453 39.5703C50.8203 42.8359 47.6328 44.4688 43.3828 44.4688ZM42.8438 21.7344C41.0938 21.7344 39.625 22.375 38.4375 23.6562C37.25 24.9219 36.5156 26.7031 36.2344 29H48.9375V28.6719C48.8125 26.4688 48.2188 24.7656 47.1562 23.5625C46.0938 22.3438 44.6562 21.7344 42.8438 21.7344ZM77.8125 28.9297H63.4922V44H58.9922V9.875H80.1328V13.5781H63.4922V25.25H77.8125V28.9297ZM83.1797 31.0859C83.1797 28.6016 83.6641 26.3672 84.6328 24.3828C85.6172 22.3984 86.9766 20.8672 88.7109 19.7891C90.4609 18.7109 92.4531 18.1719 94.6875 18.1719C98.1406 18.1719 100.93 19.3672 103.055 21.7578C105.195 24.1484 106.266 27.3281 106.266 31.2969V31.6016C106.266 34.0703 105.789 36.2891 104.836 38.2578C103.898 40.2109 102.547 41.7344 100.781 42.8281C99.0312 43.9219 97.0156 44.4688 94.7344 44.4688C91.2969 44.4688 88.5078 43.2734 86.3672 40.8828C84.2422 38.4922 83.1797 35.3281 83.1797 31.3906V31.0859ZM87.5391 31.6016C87.5391 34.4141 88.1875 36.6719 89.4844 38.375C90.7969 40.0781 92.5469 40.9297 94.7344 40.9297C96.9375 40.9297 98.6875 40.0703 99.9844 38.3516C101.281 36.6172 101.93 34.1953 101.93 31.0859C101.93 28.3047 101.266 26.0547 99.9375 24.3359C98.625 22.6016 96.875 21.7344 94.6875 21.7344C92.5469 21.7344 90.8203 22.5859 89.5078 24.2891C88.1953 25.9922 87.5391 28.4297 87.5391 31.6016ZM123.961 22.5312C123.305 22.4219 122.594 22.3672 121.828 22.3672C118.984 22.3672 117.055 23.5781 116.039 26V44H111.703V18.6406H115.922L115.992 21.5703C117.414 19.3047 119.43 18.1719 122.039 18.1719C122.883 18.1719 123.523 18.2812 123.961 18.5V22.5312ZM138.023 44.4688C134.586 44.4688 131.789 43.3438 129.633 41.0938C127.477 38.8281 126.398 35.8047 126.398 32.0234V31.2266C126.398 28.7109 126.875 26.4688 127.828 24.5C128.797 22.5156 130.141 20.9688 131.859 19.8594C133.594 18.7344 135.469 18.1719 137.484 18.1719C140.781 18.1719 143.344 19.2578 145.172 21.4297C147 23.6016 147.914 26.7109 147.914 30.7578V32.5625H130.734C130.797 35.0625 131.523 37.0859 132.914 38.6328C134.32 40.1641 136.102 40.9297 138.258 40.9297C139.789 40.9297 141.086 40.6172 142.148 39.9922C143.211 39.3672 144.141 38.5391 144.938 37.5078L147.586 39.5703C145.461 42.8359 142.273 44.4688 138.023 44.4688ZM137.484 21.7344C135.734 21.7344 134.266 22.375 133.078 23.6562C131.891 24.9219 131.156 26.7031 130.875 29H143.578V28.6719C143.453 26.4688 142.859 24.7656 141.797 23.5625C140.734 22.3438 139.297 21.7344 137.484 21.7344ZM167.719 37.2734C167.719 36.1016 167.273 35.1953 166.383 34.5547C165.508 33.8984 163.969 33.3359 161.766 32.8672C159.578 32.3984 157.836 31.8359 156.539 31.1797C155.258 30.5234 154.305 29.7422 153.68 28.8359C153.07 27.9297 152.766 26.8516 152.766 25.6016C152.766 23.5234 153.641 21.7656 155.391 20.3281C157.156 18.8906 159.406 18.1719 162.141 18.1719C165.016 18.1719 167.344 18.9141 169.125 20.3984C170.922 21.8828 171.82 23.7812 171.82 26.0938H167.461C167.461 24.9062 166.953 23.8828 165.938 23.0234C164.938 22.1641 163.672 21.7344 162.141 21.7344C160.562 21.7344 159.328 22.0781 158.438 22.7656C157.547 23.4531 157.102 24.3516 157.102 25.4609C157.102 26.5078 157.516 27.2969 158.344 27.8281C159.172 28.3594 160.664 28.8672 162.82 29.3516C164.992 29.8359 166.75 30.4141 168.094 31.0859C169.438 31.7578 170.43 32.5703 171.07 33.5234C171.727 34.4609 172.055 35.6094 172.055 36.9688C172.055 39.2344 171.148 41.0547 169.336 42.4297C167.523 43.7891 165.172 44.4688 162.281 44.4688C160.25 44.4688 158.453 44.1094 156.891 43.3906C155.328 42.6719 154.102 41.6719 153.211 40.3906C152.336 39.0938 151.898 37.6953 151.898 36.1953H156.234C156.312 37.6484 156.891 38.8047 157.969 39.6641C159.062 40.5078 160.5 40.9297 162.281 40.9297C163.922 40.9297 165.234 40.6016 166.219 39.9453C167.219 39.2734 167.719 38.3828 167.719 37.2734ZM183.586 12.5V18.6406H188.32V21.9922H183.586V37.7188C183.586 38.7344 183.797 39.5 184.219 40.0156C184.641 40.5156 185.359 40.7656 186.375 40.7656C186.875 40.7656 187.562 40.6719 188.438 40.4844V44C187.297 44.3125 186.188 44.4688 185.109 44.4688C183.172 44.4688 181.711 43.8828 180.727 42.7109C179.742 41.5391 179.25 39.875 179.25 37.7188V21.9922H174.633V18.6406H179.25V12.5H183.586Z" fill="black"/>
<path d="M228.541 38.3083L222.091 31.0623H224.564C225.292 31.0623 225.935 30.6619 226.242 30.0165C226.549 29.3727 226.448 28.6344 225.977 28.0907L219.669 20.8127H222.002C222.736 20.8127 223.398 20.3843 223.686 19.7228C223.97 19.0718 223.836 18.3143 223.344 17.7946L214.441 8.38736C213.955 7.87088 213.046 7.87088 212.559 8.38736L203.656 17.7946C203.163 18.3143 203.03 19.0718 203.313 19.7228C203.601 20.3843 204.264 20.8127 204.998 20.8127H207.331L201.022 28.0923C200.553 28.6352 200.452 29.3727 200.758 30.0173C201.065 30.6619 201.708 31.0623 202.436 31.0623H204.909L198.459 38.3083C197.975 38.852 197.865 39.5967 198.172 40.251C198.474 40.8956 199.14 41.312 199.868 41.312H210.917V43.2698L208.471 47.1455C208.042 47.9975 208.667 49 209.627 49H217.373C218.333 49 218.958 47.9975 218.529 47.1455L216.083 43.2698V41.312H227.132C227.86 41.312 228.526 40.8956 228.828 40.251C229.135 39.5967 229.025 38.852 228.541 38.3083Z" fill="#70C174"/>
</svg>
